<?xml version="1.0" encoding="UTF-8" standalone="no"?>
<!DOCTYPE svg PUBLIC "-//W3C//DTD SVG 1.1//EN"
 "http://www.w3.org/Graphics/SVG/1.1/DTD/svg11.dtd">
<!-- Generated by graphviz version 5.0.0 (20220707.1540)
 -->
<!-- Title: dependencies Pages: 1 -->
<svg width="798pt" height="174pt"
 viewBox="0.00 0.00 798.00 173.80" xmlns="http://www.w3.org/2000/svg" xmlns:xlink="http://www.w3.org/1999/xlink">
<g id="graph0" class="graph" transform="scale(1 1) rotate(0) translate(4 169.8)">
<title>dependencies</title>
<polygon fill="white" stroke="transparent" points="-4,4 -4,-169.8 794,-169.8 794,4 -4,4"/>
<text text-anchor="middle" x="395" y="-8.2" font-family="sans-serif" font-size="14.00">dependencies</text>
<g id="clust1" class="cluster">
<title>cluster_LoginModule</title>
<polygon fill="none" stroke="black" stroke-dasharray="1,5" points="8,-32.8 8,-157.8 782,-157.8 782,-32.8 8,-32.8"/>
</g>
<g id="clust6" class="cluster">
<title>cluster_LoginModule_imports</title>
<polygon fill="none" stroke="black" points="620,-40.8 620,-92.8 774,-92.8 774,-40.8 620,-40.8"/>
</g>
<g id="clust2" class="cluster">
<title>cluster_LoginModule_declarations</title>
<polygon fill="none" stroke="black" points="16,-40.8 16,-92.8 612,-92.8 612,-40.8 16,-40.8"/>
</g>
<!-- PageForgotPasswordComponent -->
<g id="node1" class="node">
<title>PageForgotPasswordComponent</title>
<polygon fill="#ffffb3" stroke="black" points="603.55,-84.8 404.45,-84.8 404.45,-48.8 603.55,-48.8 603.55,-84.8"/>
<text text-anchor="middle" x="504" y="-62.6" font-family="Times,serif" font-size="14.00">PageForgotPasswordComponent</text>
</g>
<!-- LoginModule -->
<g id="node4" class="node">
<title>LoginModule</title>
<polygon fill="#8dd3c7" stroke="black" points="443.49,-149.8 440.49,-153.8 419.49,-153.8 416.49,-149.8 350.51,-149.8 350.51,-113.8 443.49,-113.8 443.49,-149.8"/>
<text text-anchor="middle" x="397" y="-127.6" font-family="Times,serif" font-size="14.00">LoginModule</text>
</g>
<!-- PageForgotPasswordComponent&#45;&gt;LoginModule -->
<g id="edge1" class="edge">
<title>PageForgotPasswordComponent&#45;&gt;LoginModule</title>
<path fill="none" stroke="black" d="M423.86,-84.91C423.86,-84.91 423.86,-103.79 423.86,-103.79"/>
<polygon fill="black" stroke="black" points="420.36,-103.79 423.86,-113.79 427.36,-103.79 420.36,-103.79"/>
</g>
<!-- PageResetPasswordComponent -->
<g id="node2" class="node">
<title>PageResetPasswordComponent</title>
<polygon fill="#ffffb3" stroke="black" points="386.82,-84.8 193.18,-84.8 193.18,-48.8 386.82,-48.8 386.82,-84.8"/>
<text text-anchor="middle" x="290" y="-62.6" font-family="Times,serif" font-size="14.00">PageResetPasswordComponent</text>
</g>
<!-- PageResetPasswordComponent&#45;&gt;LoginModule -->
<g id="edge2" class="edge">
<title>PageResetPasswordComponent&#45;&gt;LoginModule</title>
<path fill="none" stroke="black" d="M368.58,-84.91C368.58,-84.91 368.58,-103.79 368.58,-103.79"/>
<polygon fill="black" stroke="black" points="365.08,-103.79 368.58,-113.79 372.08,-103.79 365.08,-103.79"/>
</g>
<!-- PageSignUpComponent -->
<g id="node3" class="node">
<title>PageSignUpComponent</title>
<polygon fill="#ffffb3" stroke="black" points="175.83,-84.8 24.17,-84.8 24.17,-48.8 175.83,-48.8 175.83,-84.8"/>
<text text-anchor="middle" x="100" y="-62.6" font-family="Times,serif" font-size="14.00">PageSignUpComponent</text>
</g>
<!-- PageSignUpComponent&#45;&gt;LoginModule -->
<g id="edge3" class="edge">
<title>PageSignUpComponent&#45;&gt;LoginModule</title>
<path fill="none" stroke="black" d="M100,-84.91C100,-104.14 100,-131.8 100,-131.8 100,-131.8 340.27,-131.8 340.27,-131.8"/>
<polygon fill="black" stroke="black" points="340.27,-135.3 350.27,-131.8 340.27,-128.3 340.27,-135.3"/>
</g>
<!-- LoginRoutingModule -->
<g id="node5" class="node">
<title>LoginRoutingModule</title>
<polygon fill="#8dd3c7" stroke="black" points="766.11,-84.8 763.11,-88.8 742.11,-88.8 739.11,-84.8 627.89,-84.8 627.89,-48.8 766.11,-48.8 766.11,-84.8"/>
<text text-anchor="middle" x="697" y="-62.6" font-family="Times,serif" font-size="14.00">LoginRoutingModule</text>
</g>
<!-- LoginRoutingModule&#45;&gt;LoginModule -->
<g id="edge4" class="edge">
<title>LoginRoutingModule&#45;&gt;LoginModule</title>
<path fill="none" stroke="black" d="M697,-84.91C697,-104.14 697,-131.8 697,-131.8 697,-131.8 453.55,-131.8 453.55,-131.8"/>
<polygon fill="black" stroke="black" points="453.55,-128.3 443.55,-131.8 453.55,-135.3 453.55,-128.3"/>
</g>
</g>
</svg>
