<?xml version="1.0" encoding="UTF-8" standalone="no"?>
<!DOCTYPE svg PUBLIC "-//W3C//DTD SVG 1.1//EN"
 "http://www.w3.org/Graphics/SVG/1.1/DTD/svg11.dtd">
<!-- Generated by graphviz version 5.0.0 (20220707.1540)
 -->
<!-- Title: dependencies Pages: 1 -->
<svg width="583pt" height="247pt"
 viewBox="0.00 0.00 583.00 246.80" xmlns="http://www.w3.org/2000/svg" xmlns:xlink="http://www.w3.org/1999/xlink">
<g id="graph0" class="graph" transform="scale(1 1) rotate(0) translate(4 242.8)">
<title>dependencies</title>
<polygon fill="white" stroke="transparent" points="-4,4 -4,-242.8 579,-242.8 579,4 -4,4"/>
<text text-anchor="middle" x="287.5" y="-8.2" font-family="sans-serif" font-size="14.00">dependencies</text>
<g id="clust1" class="cluster">
<title>cluster_AppModule</title>
<polygon fill="none" stroke="black" stroke-dasharray="1,5" points="8,-32.8 8,-230.8 567,-230.8 567,-32.8 8,-32.8"/>
</g>
<g id="clust5" class="cluster">
<title>cluster_AppModule_imports</title>
<polygon fill="none" stroke="black" points="310,-40.8 310,-92.8 559,-92.8 559,-40.8 310,-40.8"/>
</g>
<g id="clust7" class="cluster">
<title>cluster_AppModule_bootstrap</title>
<polygon fill="none" stroke="black" points="239,-170.8 239,-222.8 363,-222.8 363,-170.8 239,-170.8"/>
</g>
<g id="clust2" class="cluster">
<title>cluster_AppModule_declarations</title>
<polygon fill="none" stroke="black" points="16,-40.8 16,-92.8 302,-92.8 302,-40.8 16,-40.8"/>
</g>
<!-- AppComponent -->
<g id="node1" class="node">
<title>AppComponent</title>
<polygon fill="#ffffb3" stroke="black" points="293.94,-84.8 188.06,-84.8 188.06,-48.8 293.94,-48.8 293.94,-84.8"/>
<text text-anchor="middle" x="241" y="-62.6" font-family="Times,serif" font-size="14.00">AppComponent</text>
</g>
<!-- AppModule -->
<g id="node3" class="node">
<title>AppModule</title>
<polygon fill="#8dd3c7" stroke="black" points="342.66,-149.8 339.66,-153.8 318.66,-153.8 315.66,-149.8 259.34,-149.8 259.34,-113.8 342.66,-113.8 342.66,-149.8"/>
<text text-anchor="middle" x="301" y="-127.6" font-family="Times,serif" font-size="14.00">AppModule</text>
</g>
<!-- AppComponent&#45;&gt;AppModule -->
<g id="edge1" class="edge">
<title>AppComponent&#45;&gt;AppModule</title>
<path fill="none" stroke="black" d="M276.44,-84.91C276.44,-84.91 276.44,-103.79 276.44,-103.79"/>
<polygon fill="black" stroke="black" points="272.94,-103.79 276.44,-113.79 279.94,-103.79 272.94,-103.79"/>
</g>
<!-- PageSignInComponent -->
<g id="node2" class="node">
<title>PageSignInComponent</title>
<polygon fill="#ffffb3" stroke="black" points="169.88,-84.8 24.12,-84.8 24.12,-48.8 169.88,-48.8 169.88,-84.8"/>
<text text-anchor="middle" x="97" y="-62.6" font-family="Times,serif" font-size="14.00">PageSignInComponent</text>
</g>
<!-- PageSignInComponent&#45;&gt;AppModule -->
<g id="edge2" class="edge">
<title>PageSignInComponent&#45;&gt;AppModule</title>
<path fill="none" stroke="black" d="M97,-84.91C97,-104.14 97,-131.8 97,-131.8 97,-131.8 249.23,-131.8 249.23,-131.8"/>
<polygon fill="black" stroke="black" points="249.23,-135.3 259.23,-131.8 249.23,-128.3 249.23,-135.3"/>
</g>
<!-- AppComponent  -->
<g id="node6" class="node">
<title>AppComponent </title>
<polygon fill="#80b1d3" stroke="black" points="355.44,-214.8 246.56,-214.8 246.56,-178.8 355.44,-178.8 355.44,-214.8"/>
<text text-anchor="middle" x="301" y="-192.6" font-family="Times,serif" font-size="14.00">AppComponent </text>
</g>
<!-- AppModule&#45;&gt;AppComponent  -->
<g id="edge5" class="edge">
<title>AppModule&#45;&gt;AppComponent </title>
<path fill="none" stroke="black" stroke-dasharray="1,5" d="M301,-149.91C301,-149.91 301,-168.79 301,-168.79"/>
<polygon fill="black" stroke="black" points="297.5,-168.79 301,-178.79 304.5,-168.79 297.5,-168.79"/>
</g>
<!-- AppRoutingModule -->
<g id="node4" class="node">
<title>AppRoutingModule</title>
<polygon fill="#8dd3c7" stroke="black" points="551.28,-84.8 548.28,-88.8 527.28,-88.8 524.28,-84.8 422.72,-84.8 422.72,-48.8 551.28,-48.8 551.28,-84.8"/>
<text text-anchor="middle" x="487" y="-62.6" font-family="Times,serif" font-size="14.00">AppRoutingModule</text>
</g>
<!-- AppRoutingModule&#45;&gt;AppModule -->
<g id="edge3" class="edge">
<title>AppRoutingModule&#45;&gt;AppModule</title>
<path fill="none" stroke="black" d="M487,-84.91C487,-104.14 487,-131.8 487,-131.8 487,-131.8 352.74,-131.8 352.74,-131.8"/>
<polygon fill="black" stroke="black" points="352.74,-128.3 342.74,-131.8 352.74,-135.3 352.74,-128.3"/>
</g>
<!-- CoreModule -->
<g id="node5" class="node">
<title>CoreModule</title>
<polygon fill="#8dd3c7" stroke="black" points="404.27,-84.8 401.27,-88.8 380.27,-88.8 377.27,-84.8 317.73,-84.8 317.73,-48.8 404.27,-48.8 404.27,-84.8"/>
<text text-anchor="middle" x="361" y="-62.6" font-family="Times,serif" font-size="14.00">CoreModule</text>
</g>
<!-- CoreModule&#45;&gt;AppModule -->
<g id="edge4" class="edge">
<title>CoreModule&#45;&gt;AppModule</title>
<path fill="none" stroke="black" d="M330.22,-84.91C330.22,-84.91 330.22,-103.79 330.22,-103.79"/>
<polygon fill="black" stroke="black" points="326.72,-103.79 330.22,-113.79 333.72,-103.79 326.72,-103.79"/>
</g>
</g>
</svg>
